<svg width="26" height="18" viewBox="0 0 26 18" fill="none" xmlns="http://www.w3.org/2000/svg">
<path d="M24.8407 5.27982C17.909 -1.13156 7.12812 -1.12921 0.199112 5.27982C-0.0614593 5.52083 -0.0665455 5.92891 0.185418 6.17891L1.52505 7.50798C1.76528 7.74664 2.15183 7.75173 2.40145 7.52285C8.11054 2.29265 16.9285 2.29147 22.6388 7.52285C22.8884 7.75173 23.2749 7.74625 23.5152 7.50798L24.8548 6.17891C25.1064 5.92891 25.1013 5.52083 24.8407 5.27982ZM12.5199 12.9921C11.1368 12.9921 10.0159 14.113 10.0159 15.4961C10.0159 16.8792 11.1368 18.0001 12.5199 18.0001C13.903 18.0001 15.0239 16.8792 15.0239 15.4961C15.0239 14.113 13.903 12.9921 12.5199 12.9921ZM20.4493 9.72167C15.9398 5.73367 9.09492 5.73798 4.59048 9.72167C4.32052 9.96033 4.31191 10.3747 4.56818 10.6274L5.91564 11.9573C6.15039 12.1889 6.52833 12.2045 6.77834 11.9886C10.0629 9.14927 14.9844 9.15553 18.2611 11.9886C18.5111 12.2045 18.889 12.1893 19.1238 11.9573L20.4712 10.6274C20.7279 10.3747 20.7189 9.95994 20.4493 9.72167Z" fill="black"/>
</svg>
