<svg width="36" height="18" viewBox="0 0 36 18" fill="none" xmlns="http://www.w3.org/2000/svg">
<path d="M11.1719 12.2258C11.3658 12.4043 12.0083 12.7417 13.0556 12.7417C14.1029 12.7417 14.7459 12.4043 14.9393 12.2258C15.8168 11.4167 16.829 10.989 17.8675 10.989H18.7603C19.7989 10.989 20.8116 11.4167 21.6886 12.2258C21.8825 12.4043 22.525 12.7417 23.5723 12.7417C24.6196 12.7417 25.2626 12.4043 25.456 12.2258C26.2699 11.4748 27.2022 11.0689 28.1613 11.012L21.9805 6.59715L22.9665 5.89275C23.1659 5.75143 23.42 5.69995 23.6577 5.74979L29.1543 6.92908C30.5735 7.23199 31.9719 6.32821 32.2765 4.909C32.5805 3.48925 31.6767 2.09141 30.2564 1.78686L24.7598 0.607571C23.0766 0.247155 21.3079 0.614143 19.909 1.61432L15.5259 4.74578C14.9574 5.15056 14.4655 5.64627 14.0624 6.2214L10.3032 11.5915C10.6028 11.7684 10.8958 11.9711 11.1719 12.2258ZM34.9654 14.4945H34.089C32.6626 14.4945 31.5803 14.0333 31.0167 13.5141C30.5292 13.0644 29.9398 12.7417 29.2765 12.7417H28.3837C27.7203 12.7417 27.131 13.0644 26.6435 13.5141C26.0809 14.0333 24.9986 14.4945 23.5723 14.4945C22.146 14.4945 21.0636 14.0333 20.5 13.5141C20.0125 13.0644 19.4231 12.7417 18.7598 12.7417H17.867C17.2037 12.7417 16.6143 13.0644 16.1268 13.5141C15.5643 14.0333 14.4819 14.4945 13.0556 14.4945C11.6293 14.4945 10.5469 14.0333 9.9833 13.5141C9.49581 13.0644 8.90644 12.7417 8.24312 12.7417H7.3503C6.68698 12.7417 6.09761 13.0644 5.61011 13.5141C5.04758 14.0333 3.96524 14.4945 2.53891 14.4945H1.66252C1.17832 14.4945 0.786133 14.8867 0.786133 15.3709V17.1237C0.786133 17.6079 1.17832 18.0001 1.66252 18.0001H2.53891C4.6543 18.0001 6.52211 17.3324 7.79726 16.2561C9.0724 17.3329 10.9402 18.0001 13.0556 18.0001C15.171 18.0001 17.0388 17.3324 18.3139 16.2561C19.5891 17.3329 21.4569 18.0001 23.5723 18.0001C25.6877 18.0001 27.5555 17.3324 28.8306 16.2561C30.1058 17.3329 31.9736 18.0001 34.089 18.0001H34.9654C35.4496 18.0001 35.8417 17.6079 35.8417 17.1237V15.3709C35.8417 14.8867 35.4496 14.4945 34.9654 14.4945ZM6.92086 9.23618C9.3408 9.23618 11.3028 7.27416 11.3028 4.85423C11.3028 2.4343 9.3408 0.472278 6.92086 0.472278C4.50093 0.472278 2.53891 2.4343 2.53891 4.85423C2.53891 7.27416 4.50093 9.23618 6.92086 9.23618Z" fill="black"/>
</svg>
