<svg width="114" height="113" viewBox="0 0 114 113" fill="none" xmlns="http://www.w3.org/2000/svg">
<path d="M93.7649 34.5121L72.6749 10.9704C72.2308 10.4827 71.6886 10.0924 71.0832 9.82484C70.4779 9.55725 69.8227 9.4182 69.1599 9.41665H31.1599C29.5817 9.39799 28.0152 9.68766 26.55 10.2691C25.0848 10.8506 23.7494 11.7124 22.6202 12.8055C21.4911 13.8985 20.5902 15.2014 19.969 16.6395C19.3478 18.0777 19.0185 19.6231 18.9999 21.1875V91.8125C19.0185 93.3768 19.3478 94.9222 19.969 96.3604C20.5902 97.7986 21.4911 99.1014 22.6202 100.194C23.7494 101.288 25.0848 102.149 26.55 102.731C28.0152 103.312 29.5817 103.602 31.1599 103.583H82.8399C84.4181 103.602 85.9845 103.312 87.4498 102.731C88.915 102.149 90.2503 101.288 91.3795 100.194C92.5087 99.1014 93.4096 97.7986 94.0308 96.3604C94.652 94.9222 94.9813 93.3768 94.9999 91.8125V37.6666C94.9968 36.4998 94.5567 35.3756 93.7649 34.5121ZM66.4999 18.8333L84.2649 37.6666H70.0149C69.5175 37.6369 69.031 37.5092 68.5839 37.2911C68.1368 37.0729 67.738 36.7687 67.4108 36.3962C67.0836 36.0236 66.8345 35.5902 66.6781 35.1212C66.5217 34.6522 66.4611 34.157 66.4999 33.6646V18.8333Z" fill="#9C0CCF"/>
</svg>
