<svg width="93" height="92" viewBox="0 0 93 92" fill="none" xmlns="http://www.w3.org/2000/svg">
<path d="M83.3361 88.6217L83.4321 88.471L93 69.4197L65.0512 48.8569L52.1917 58.3174C47.3421 58.0343 42.7666 56.0168 39.3314 52.6469C35.8962 49.277 33.8396 44.7886 33.5511 40.0312L43.195 27.4168L22.2338 -3.13008e-06L2.9753 9.30774L2.8127 9.38606L2.65929 9.48044C1.84343 9.97715 1.17074 10.6704 0.705261 11.4943C0.239776 12.3182 -0.00299892 13.2452 2.99047e-05 14.1871L2.96924e-05 19.103C2.92832e-05 28.5749 1.90185 37.9541 5.59691 46.7049C9.29197 55.4558 14.7079 63.4071 21.5355 70.1047C28.3631 76.8023 36.4686 82.1152 45.3892 85.7399C54.3099 89.3646 63.871 91.2302 73.5266 91.2302L78.5381 91.2302C79.4983 91.2332 80.4433 90.9951 81.2831 90.5385C82.123 90.0819 82.8297 89.4221 83.3361 88.6217ZM73.5266 84.1899C36.9413 84.1899 7.17692 54.9919 7.17692 19.103L7.17693 15.1252L20.0646 8.89764L34.2244 27.4181L26.3412 37.7293L26.3412 38.9026C26.3493 45.9256 29.1968 52.6586 34.2591 57.6246C39.3214 62.5906 46.1851 65.3839 53.3443 65.3918L54.5404 65.3918L65.0514 57.6587L83.93 71.5474L77.5804 84.1899L73.5266 84.1899Z" fill="#9C0CCF"/>
</svg>
