<svg width="25" height="18" viewBox="0 0 25 18" fill="none" xmlns="http://www.w3.org/2000/svg">
<path d="M24.342 15.5622L19.5363 12.0574C19.3193 11.8992 19.0253 11.8113 18.7168 11.8113C18.4358 11.8113 18.2932 11.4592 18.4785 11.248C19.4755 10.1118 20.052 8.76179 20.052 7.31179C20.052 3.27273 15.5644 0 10.026 0C4.4876 0 0 3.27273 0 7.31179C0 11.3508 4.4876 14.6236 10.026 14.6236C12.1292 14.6236 14.079 14.1531 15.6906 13.3469C15.9191 13.2326 16.1959 13.3944 16.1959 13.6498C16.1959 13.8748 16.3164 14.0892 16.5333 14.2474L21.339 17.7522C21.7921 18.0826 22.5248 18.0826 22.9731 17.7522L24.3372 16.7573C24.7903 16.4269 24.7903 15.8926 24.342 15.5622ZM10.026 11.8113C6.61813 11.8113 3.85616 9.80061 3.85616 7.31179C3.85616 4.82648 6.61331 2.81223 10.026 2.81223C13.4339 2.81223 16.1959 4.82297 16.1959 7.31179C16.1959 9.79709 13.4387 11.8113 10.026 11.8113Z" fill="#74089A"/>
</svg>
