<svg width="18" height="18" viewBox="0 0 18 18" fill="none" xmlns="http://www.w3.org/2000/svg">
<path d="M15.8289 0.472168H2.05695C1.02014 0.472168 0.178955 1.31335 0.178955 2.35016V16.1221C0.178955 17.1589 1.02014 18.0001 2.05695 18.0001H15.8289C16.8657 18.0001 17.7069 17.1589 17.7069 16.1221V2.35016C17.7069 1.31335 16.8657 0.472168 15.8289 0.472168ZM9.56891 11.7401H7.69092V13.6181C7.69092 13.9624 7.40922 14.2441 7.06492 14.2441H5.81293C5.46863 14.2441 5.18693 13.9624 5.18693 13.6181V4.85415C5.18693 4.50985 5.46863 4.22815 5.81293 4.22815H9.56891C11.6386 4.22815 13.3249 5.91443 13.3249 7.98413C13.3249 10.0538 11.6386 11.7401 9.56891 11.7401ZM9.56891 6.73214H7.69092V9.23613H9.56891C10.2575 9.23613 10.8209 8.67273 10.8209 7.98413C10.8209 7.29554 10.2575 6.73214 9.56891 6.73214Z" fill="black"/>
</svg>
