<svg width="97" height="104" viewBox="0 0 97 104" fill="none" xmlns="http://www.w3.org/2000/svg">
<path d="M91.0385 16.9093L52.2385 0.742669C51.0566 0.252372 49.7897 0 48.5101 0C47.2305 0 45.9636 0.252372 44.7817 0.742669L5.98167 16.9093C2.36437 18.4048 0 21.9412 0 25.8616C0 65.9752 23.1385 93.701 44.7615 102.714C47.146 103.704 49.8337 103.704 52.2183 102.714C69.5369 95.4995 97 70.5827 97 25.8616C97 21.9412 94.6356 18.4048 91.0385 16.9093ZM48.5202 90.1848L48.5 13.191L84.0465 28.0037C83.3796 58.5991 67.4554 80.7677 48.5202 90.1848Z" fill="#9C0CCF"/>
</svg>
