<svg width="26" height="19" viewBox="0 0 26 19" fill="none" xmlns="http://www.w3.org/2000/svg">
<path d="M4.225 2.6H2.275C1.73469 2.6 1.3 3.03469 1.3 3.575V7.8H0.325C0.14625 7.8 0 7.94625 0 8.125V10.075C0 10.2538 0.14625 10.4 0.325 10.4H1.3V14.625C1.3 15.1653 1.73469 15.6 2.275 15.6H4.225C4.76531 15.6 5.2 15.1653 5.2 14.625V3.575C5.2 3.03469 4.76531 2.6 4.225 2.6ZM25.675 7.8H24.7V3.575C24.7 3.03469 24.2653 2.6 23.725 2.6H21.775C21.2347 2.6 20.8 3.03469 20.8 3.575V14.625C20.8 15.1653 21.2347 15.6 21.775 15.6H23.725C24.2653 15.6 24.7 15.1653 24.7 14.625V10.4H25.675C25.8537 10.4 26 10.2538 26 10.075V8.125C26 7.94625 25.8537 7.8 25.675 7.8ZM18.525 0H16.575C16.0347 0 15.6 0.434688 15.6 0.975V7.8H10.4V0.975C10.4 0.434688 9.96531 0 9.425 0H7.475C6.93469 0 6.5 0.434688 6.5 0.975V17.225C6.5 17.7653 6.93469 18.2 7.475 18.2H9.425C9.96531 18.2 10.4 17.7653 10.4 17.225V10.4H15.6V17.225C15.6 17.7653 16.0347 18.2 16.575 18.2H18.525C19.0653 18.2 19.5 17.7653 19.5 17.225V0.975C19.5 0.434688 19.0653 0 18.525 0Z" fill="black"/>
</svg>
