<svg width="16" height="18" viewBox="0 0 16 18" fill="none" xmlns="http://www.w3.org/2000/svg">
<path d="M15.7363 12.2898L14.5792 11.6223L15.4693 11.3826C15.75 11.3073 15.9178 11.0163 15.8425 10.7356L15.7055 10.2255C15.6302 9.94477 15.3392 9.77703 15.0585 9.85234L12.6347 10.5028L10.4472 9.23613L12.6313 7.97288L15.0551 8.62333C15.3358 8.69865 15.6268 8.5309 15.7021 8.25018L15.8391 7.74009C15.9144 7.45937 15.7466 7.16838 15.4659 7.09306L14.5758 6.85342L15.7329 6.18586C15.9863 6.03865 16.0718 5.71685 15.9281 5.46352L15.3974 4.54604C15.2502 4.29271 14.9284 4.20712 14.6751 4.3509L13.518 5.01847L13.7576 4.12838C13.8329 3.84766 13.6652 3.55667 13.3845 3.48136L12.8744 3.34442C12.5936 3.2691 12.3027 3.43685 12.2273 3.71757L11.5769 6.14135L9.42698 7.38063V4.72748L11.2654 2.8891C11.4776 2.67685 11.4776 2.32766 11.2654 2.11541L10.8785 1.72856C10.6663 1.51631 10.3171 1.51631 10.1048 1.72856L9.42698 2.40298V1.01992C9.42698 0.718654 9.1805 0.472168 8.87924 0.472168H7.78374C7.48248 0.472168 7.23599 0.718654 7.23599 1.01992V2.40298L6.56158 1.72856C6.34933 1.51631 6.00014 1.51631 5.78789 1.72856L5.39762 2.11541C5.18194 2.32766 5.18194 2.67685 5.39762 2.8891L7.23599 4.72748V7.38063L5.08608 6.14135L4.43564 3.71757C4.36032 3.43685 4.06933 3.2691 3.78861 3.34442L3.27852 3.48136C2.9978 3.55667 2.83005 3.84766 2.90537 4.12838L3.14501 5.01847L1.98789 4.3509C1.73456 4.2037 1.41275 4.29271 1.26555 4.54604L0.734917 5.46009C0.58771 5.71343 0.676719 6.03523 0.930052 6.18243L2.08717 6.85L1.19708 7.08964C0.912935 7.16496 0.745187 7.45595 0.820502 7.74009L0.957439 8.25018C1.03275 8.5309 1.32375 8.69865 1.60447 8.62333L4.02825 7.97288L6.21239 9.23613L4.02825 10.4994L1.60447 9.84892C1.32375 9.7736 1.03275 9.94135 0.957439 10.2221L0.820502 10.7322C0.745187 11.0129 0.912935 11.3039 1.19366 11.3792L2.08374 11.6188L0.926628 12.2898C0.673295 12.437 0.58771 12.7588 0.731493 13.0122L1.26212 13.9296C1.40933 14.183 1.73113 14.2686 1.98447 14.1248L3.14158 13.4572L2.90194 14.3473C2.82663 14.628 2.99437 14.919 3.2751 14.9943L3.78519 15.1313C4.06591 15.2066 4.3569 15.0388 4.43221 14.7581L5.08266 12.3343L7.23257 11.095V13.7482L5.39419 15.5866C5.17852 15.7988 5.17852 16.148 5.39419 16.3603L5.78104 16.7471C5.99329 16.9594 6.34248 16.9594 6.55473 16.7471L7.22915 16.0727V17.4523C7.22915 17.7536 7.47563 18.0001 7.77689 18.0001H8.87239C9.17365 18.0001 9.42014 17.7536 9.42014 17.4523V16.0693L10.0946 16.7437C10.3068 16.9559 10.656 16.9559 10.8682 16.7437L11.2551 16.3568C11.4673 16.1446 11.4673 15.7954 11.2551 15.5831L9.42698 13.7448V11.0916L11.5769 12.3309L12.2273 14.7547C12.3027 15.0354 12.5936 15.2031 12.8744 15.1278L13.3845 14.9909C13.6652 14.9156 13.8329 14.6246 13.7576 14.3439L13.518 13.4538L14.6751 14.1213C14.9284 14.2686 15.2502 14.1795 15.3974 13.9262L15.9281 13.0087C16.0753 12.7588 15.9897 12.4336 15.7363 12.2898Z" fill="black"/>
</svg>
