<svg width="206" height="41" viewBox="0 0 206 41" fill="none" xmlns="http://www.w3.org/2000/svg">
<g filter="url(#filter0_d_344_440)">
<path d="M84.56 30V18.64H80.08V16H92.28V18.64H87.8V30H84.56ZM94.0233 30V16H100.083C101.337 16 102.417 16.2067 103.323 16.62C104.23 17.02 104.93 17.6 105.423 18.36C105.917 19.12 106.163 20.0267 106.163 21.08C106.163 22.12 105.917 23.02 105.423 23.78C104.93 24.5267 104.23 25.1 103.323 25.5C102.417 25.9 101.337 26.1 100.083 26.1H95.8233L97.2633 24.68V30H94.0233ZM102.923 30L99.4233 24.92H102.883L106.423 30H102.923ZM97.2633 25.04L95.8233 23.52H99.9033C100.903 23.52 101.65 23.3067 102.143 22.88C102.637 22.44 102.883 21.84 102.883 21.08C102.883 20.3067 102.637 19.7067 102.143 19.28C101.65 18.8533 100.903 18.64 99.9033 18.64H95.8233L97.2633 17.1V25.04ZM106.89 30L113.13 16H116.33L122.59 30H119.19L114.07 17.64H115.35L110.21 30H106.89ZM110.01 27L110.87 24.54H118.07L118.95 27H110.01ZM127.481 30L121.441 16H124.941L130.221 28.4H128.161L133.521 16H136.741L130.681 30H127.481ZM140.89 21.64H147.63V24.16H140.89V21.64ZM141.13 27.4H148.75V30H137.91V16H148.49V18.6H141.13V27.4ZM151.328 30V16H154.568V27.36H161.588V30H151.328ZM163.398 30V16H166.638V27.36H173.658V30H163.398ZM178.449 21.64H185.189V24.16H178.449V21.64ZM178.689 27.4H186.309V30H175.469V16H186.049V18.6H178.689V27.4ZM188.887 30V16H194.947C196.2 16 197.28 16.2067 198.187 16.62C199.093 17.02 199.793 17.6 200.287 18.36C200.78 19.12 201.027 20.0267 201.027 21.08C201.027 22.12 200.78 23.02 200.287 23.78C199.793 24.5267 199.093 25.1 198.187 25.5C197.28 25.9 196.2 26.1 194.947 26.1H190.687L192.127 24.68V30H188.887ZM197.787 30L194.287 24.92H197.747L201.287 30H197.787ZM192.127 25.04L190.687 23.52H194.767C195.767 23.52 196.513 23.3067 197.007 22.88C197.5 22.44 197.747 21.84 197.747 21.08C197.747 20.3067 197.5 19.7067 197.007 19.28C196.513 18.8533 195.767 18.64 194.767 18.64H190.687L192.127 17.1V25.04Z" fill="#9C0CCF"/>
<path d="M42.3721 6.90698H22.4186V18.478H20.2934V14.5448C20.2909 12.3164 19.4046 10.1799 17.8289 8.60418C16.2531 7.02842 14.1167 6.14205 11.8882 6.13953H7.06977V0H4V33H7.06977V28.42L46.9767 28.7393V33H50.0465V14.5814C50.0442 12.5467 49.2349 10.596 47.7962 9.15731C46.3574 7.71858 44.4068 6.90929 42.3721 6.90698ZM7.06977 9.2093H11.8882C13.3028 9.2109 14.6589 9.77353 15.6591 10.7738C16.6594 11.774 17.222 13.1301 17.2236 14.5447V18.4778H7.06977V9.2093ZM46.9767 25.6694L7.06977 25.3501V21.5478H46.9767V25.6694ZM46.9767 18.478H25.4884V9.97674H42.3721C43.5929 9.97814 44.7633 10.4637 45.6265 11.327C46.4898 12.1902 46.9753 13.3606 46.9767 14.5814V18.478Z" fill="#9C0CCF"/>
</g>
<defs>
<filter id="filter0_d_344_440" x="0" y="0" width="205.286" height="41" filterUnits="userSpaceOnUse" color-interpolation-filters="sRGB">
<feFlood flood-opacity="0" result="BackgroundImageFix"/>
<feColorMatrix in="SourceAlpha" type="matrix" values="0 0 0 0 0 0 0 0 0 0 0 0 0 0 0 0 0 0 127 0" result="hardAlpha"/>
<feOffset dy="4"/>
<feGaussianBlur stdDeviation="2"/>
<feComposite in2="hardAlpha" operator="out"/>
<feColorMatrix type="matrix" values="0 0 0 0 0 0 0 0 0 0 0 0 0 0 0 0 0 0 0.25 0"/>
<feBlend mode="normal" in2="BackgroundImageFix" result="effect1_dropShadow_344_440"/>
<feBlend mode="normal" in="SourceGraphic" in2="effect1_dropShadow_344_440" result="shape"/>
</filter>
</defs>
</svg>
